{"title":"Quick Gun Murugun 2009 Hindi 720p WEB-DL X264 AAC { TaRa }.mkv","magnet":"magnet:?xt=urn:btih:17e0cdd7bdaaece643712b576beec3e1c0d734b5&dn=Quick+Gun+Murugun+2009+Hindi+720p+WEB-DL+X264+AAC+%7B+TaRa+%7D.mkv&tr=udp%3A%2F%2Ftracker.leechers-paradise.org%3A6969&tr=udp%3A%2F%2Fzer0day.ch%3A1337&tr=udp%3A%2F%2Fopen.demonii.com%3A1337&tr=udp%3A%2F%2Ftracker.coppersurfer.tk%3A6969&tr=udp%3A%2F%2Fexodus.desync.com%3A6969","uploader":"SkTaRa","categoryP":"video","categoryS":"hd___movies","size":"741516500","seeders":"0","leechers":"65","description":"===================================================================\r\nGeneral\r\nComplete name               : Quick Gun Murugun 2009 Hindi 720p WEB-DL X264 AAC { TaRa }.mkv\r\nFormat                      : Matroska\r\nFormat version              : Version 4\r\nFile size                   : 706 MiB\r\nDuration                    : 1 h 27 min\r\nOverall bit rate            : 1 132 kb/s\r\n===================================================================\r\nVideo\r\nID                          : 1\r\nFormat                      : AVC\r\nFormat/Info                 : Advanced Video Codec\r\nFormat profile              : High@L4.1\r\nFormat settings             : CABAC / 4 Ref Frames\r\nFormat settings, CABAC      : Yes\r\nFormat settings, ReFrames   : 4 frames\r\nCodec ID                    : V_MPEG4/ISO/AVC\r\nDuration                    : 1 h 27 min\r\nBit rate                    : 1 000 kb/s\r\nWidth                       : 1 280 pixels\r\nHeight                      : 544 pixels\r\nDisplay aspect ratio        : 2.35:1\r\nFrame rate mode             : Constant\r\nFrame rate                  : 25.000 FPS\r\nColor space                 : YUV\r\nChroma subsampling          : 4:2:0\r\nBit depth                   : 8 bits\r\nScan type                   : Progressive\r\nBits/(Pixel*Frame)          : 0.057\r\nStream size                 : 625 MiB (88%)\r\nTitle                       : .....::::: TaRa :::::.....\r\nLanguage                    : Hindi\r\nDefault                     : Yes\r\nForced                      : No\r\n===================================================================\r\nAudio\r\nID                          : 2\r\nFormat                      : AAC LC\r\nFormat/Info                 : Advanced Audio Codec Low Complexity\r\nCodec ID                    : A_AAC-2\r\nDuration                    : 1 h 27 min\r\nBit rate                    : 128 kb/s\r\nChannel(s)                  : 2 channels\r\nChannel layout              : L R\r\nSampling rate               : 48.0 kHz\r\nFrame rate                  : 46.875 FPS (1024 SPF)\r\nCompression mode            : Lossy\r\nStream size                 : 79.8 MiB (11%)\r\nTitle                       : .....::::: TaRa :::::.....\r\nLanguage                    : Hindi\r\nDefault                     : Yes\r\nForced                      : No\r\n=================================================================== <a href=\"\nhttps://extraimage.net/image/7gvg\" rel=\"nofollow\" target=\"_NEW\">\nhttps://extraimage.net/image/7gvg</a> <a href=\"\nhttps://extraimage.net/image/7gvX\" rel=\"nofollow\" target=\"_NEW\">\nhttps://extraimage.net/image/7gvX</a> <a href=\"\nhttps://extraimage.net/image/7gv5\" rel=\"nofollow\" target=\"_NEW\">\nhttps://extraimage.net/image/7gv5</a> <a href=\"\nhttps://extraimage.net/image/7gvD\" rel=\"nofollow\" target=\"_NEW\">\nhttps://extraimage.net/image/7gvD</a> <a href=\"\nhttps://extraimage.net/image/7gvF\" rel=\"nofollow\" target=\"_NEW\">\nhttps://extraimage.net/image/7gvF</a> <a href=\"\nhttps://extraimage.net/image/7gvH\" rel=\"nofollow\" target=\"_NEW\">\nhttps://extraimage.net/image/7gvH</a> <a href=\"\nhttps://extraimage.net/image/7gvk\" rel=\"nofollow\" target=\"_NEW\">\nhttps://extraimage.net/image/7gvk</a> <a href=\"\nhttps://extraimage.net/image/7gvo\" rel=\"nofollow\" target=\"_NEW\">\nhttps://extraimage.net/image/7gvo</a> <a href=\"\nhttps://extraimage.net/image/7gvt\" rel=\"nofollow\" target=\"_NEW\">\nhttps://extraimage.net/image/7gvt</a> <a href=\"\nhttps://extraimage.net/image/7gvx\" rel=\"nofollow\" target=\"_NEW\">\nhttps://extraimage.net/image/7gvx</a> <a href=\"\nhttps://extraimage.net/image/7gv6\" rel=\"nofollow\" target=\"_NEW\">\nhttps://extraimage.net/image/7gv6</a> <a href=\"\nhttps://extraimage.net/image/7gvV\" rel=\"nofollow\" target=\"_NEW\">\nhttps://extraimage.net/image/7gvV</a> <a href=\"\nhttps://extraimage.net/image/7gvu\" rel=\"nofollow\" target=\"_NEW\">\nhttps://extraimage.net/image/7gvu</a> <a href=\"\nhttps://extraimage.net/image/7gvv\" rel=\"nofollow\" target=\"_NEW\">\nhttps://extraimage.net/image/7gvv</a> <a href=\"\nhttps://extraimage.net/image/7gvA\" rel=\"nofollow\" target=\"_NEW\">\nhttps://extraimage.net/image/7gvA</a> <a href=\"\nhttps://extraimage.net/image/7gvW\" rel=\"nofollow\" target=\"_NEW\">\nhttps://extraimage.net/image/7gvW</a> <a href=\"\nhttps://extraimage.net/image/7gvf\" rel=\"nofollow\" target=\"_NEW\">\nhttps://extraimage.net/image/7gvf</a> <a href=\"\nhttps://extraimage.net/image/7gA8\" rel=\"nofollow\" target=\"_NEW\">\nhttps://extraimage.net/image/7gA8</a>","last_updated":"2018-11-04T12:25:22.354Z","parsed":{"xt":"urn:btih:17e0cdd7bdaaece643712b576beec3e1c0d734b5","dn":"Quick Gun Murugun 2009 Hindi 720p WEB-DL X264 AAC { TaRa }.mkv","tr":["udp://exodus.desync.com:6969","udp://open.demonii.com:1337","udp://tracker.coppersurfer.tk:6969","udp://tracker.leechers-paradise.org:6969","udp://zer0day.ch:1337"],"infoHash":"17e0cdd7bdaaece643712b576beec3e1c0d734b5","infoHashBuffer":{"type":"Buffer","data":[23,224,205,215,189,170,236,230,67,113,43,87,107,238,195,225,192,215,52,181]},"name":"Quick Gun Murugun 2009 Hindi 720p WEB-DL X264 AAC { TaRa }.mkv","announce":["udp://exodus.desync.com:6969","udp://open.demonii.com:1337","udp://tracker.coppersurfer.tk:6969","udp://tracker.leechers-paradise.org:6969","udp://zer0day.ch:1337"],"urlList":[]}}